<?xml version="1.0" encoding="UTF-8"?>
<svg width="240px" height="324px" viewBox="0 0 240 324" version="1.1" xmlns="http://www.w3.org/2000/svg" xmlns:xlink="http://www.w3.org/1999/xlink">
    <!-- Generator: Sketch 62 (91390) - https://sketch.com -->
    <title>peep-76</title>
    <desc>Created with Sketch.</desc>
    <g id="Introduction" stroke="none" stroke-width="1" fill="none" fill-rule="evenodd">
        <g id="variations" transform="translate(-2526.000000, -1730.000000)">
            <g id="images" transform="translate(126.000000, 110.000000)">
                <g id="a-person/bust" transform="translate(2400.000000, 1620.000000)">
                    <g id="body/Button-Shirt-1" transform="translate(31.056338, 135.052838)">
                        <path d="M16.4080469,150.998477 C44.0090737,155.192513 72.110794,155.40344 99.9411735,153.88045 C110.955378,153.05555 122.003343,152.906971 133.008686,153.961609 C139.511795,154.445389 168.024536,156.625679 170.354143,150.798963 C168.887932,119.771683 165.918373,88.4802153 156.808619,58.6396673 C153.062173,48.0440431 149.844462,39.2498092 142.532393,30.4817309 C140.227895,28.0877661 135.258036,23.066896 132.410433,21.4293539 C129.943256,20.0109821 128.912083,20.5169872 127.495455,18.1211203 C126.087716,15.4744421 125.049395,11.0542733 123.050542,9.18669838 C121.015362,7.28518299 117.999252,7.96550545 114.260904,8.57796948 C114.947698,-0.706782862 110.663571,-3.07144814 104.761589,-4.83706849 C94.3873354,-8.79798434 84.1416866,-6.80813577 81.5306104,5.82575073 C76.6891883,5.82575073 73.969679,7.91000614 71.0296751,9.91267429 C69.8278494,10.7313324 70.6638845,12.8170749 69.2283592,13.4605183 C66.5723897,14.4065213 61.8789101,14.1748053 59.3216229,15.3390557 C47.6926933,20.6333321 37.3352039,28.3107799 30.5331777,39.5232446 C15.2838599,63.462047 4.80874987,113.889382 6.62141697,142.262313 C5.82722782,143.508223 6.92546228,145.294767 7.20461006,146.634517 C7.55697347,147.799902 8.69804013,148.575135 9.88890185,148.442618 C11.5507068,150.230431 14.1210607,150.628403 16.4080469,150.998477 Z" id="ðŸŽ¨-Background" fill="#FFFFFF"></path>
                        <path d="M130.652958,20.7275037 C130.483521,20.6330301 130.632676,20.3908227 130.802958,20.4709245 C138.988521,24.3124274 145.268028,31.0521769 149.686479,38.8393785 C154.261708,46.9026765 156.869352,56.0575559 159.117487,65.0054314 L159.198592,65.3287562 C161.595845,74.900811 163.634155,84.5717777 165.469225,94.2664157 C167.327746,104.083848 168.819507,113.96215 170.019507,123.881241 C170.613169,128.785625 171.142394,133.698674 171.555211,138.621656 C171.761408,141.081774 171.948803,143.543793 172.117183,146.00687 C172.184451,146.991931 172.247797,147.976993 172.302139,148.96292 L172.341127,149.702541 C172.374718,150.373367 172.454366,151.045883 172.288732,151.707621 C172.145704,152.278056 171.843803,152.794596 171.578239,153.318322 C171.053028,154.353515 169.613239,154.182956 169.047254,153.318322 L168.882895,153.066456 C168.50757,152.48615 168.195713,151.946843 168.077958,151.224686 C167.964085,150.525328 167.959859,149.792576 167.908732,149.086243 C167.814718,147.78665 167.734648,146.485789 167.64338,145.185774 C167.451761,142.44921 167.236479,139.714337 166.998169,136.981578 C166.526831,131.58665 166.021268,126.196584 165.400352,120.816451 C164.297113,111.254964 162.912676,101.718838 161.280634,92.2334372 C159.686042,82.9673753 157.670161,73.7953212 155.567146,64.6348007 L155.349296,63.6871984 C151.667113,47.6934763 145.992042,29.2747209 130.652958,20.7275037 Z M43.4654789,83.3553299 C43.5256901,83.1953378 43.7847042,83.1585628 43.8284366,83.3553299 C44.3798451,85.8389072 44.4343521,88.3968798 44.5186479,90.9396352 C44.6016761,93.4479405 44.5982958,95.9676587 44.5617465,98.4774434 C44.4269577,107.701404 44.1738592,116.917545 43.9549859,126.140027 C43.8455493,130.753169 43.7428732,135.366946 43.6640704,139.980723 C43.6342817,141.711207 43.6092465,143.441571 43.58843,145.172084 L43.5629676,147.454431 C43.5503059,148.463512 43.5238212,149.460255 43.400831,150.468348 C43.3197042,151.131353 43.1468873,151.763714 42.7809718,152.332034 C42.5212867,152.73544 42.1511868,152.940208 41.790444,153.214346 L41.7229437,153.266625 C41.2628028,153.630359 40.7781549,153.632895 40.3224507,153.266625 L40.1901246,153.16188 C39.7548166,152.821333 39.3786031,152.555259 39.1006901,152.0167 C38.7140704,151.267886 38.652169,150.454398 38.5864648,149.629287 C38.4867465,148.378093 38.5528732,147.108512 38.5657606,145.853725 C38.5915352,143.336543 38.6263944,140.819784 38.6705493,138.302813 C38.8325915,129.072935 39.1528732,119.841365 39.7366056,110.627972 C40.0116015,106.288179 40.3844735,101.934346 40.8846361,97.6121079 L40.9799155,96.8020697 C41.1316056,95.530375 41.2699859,94.2360658 41.4259014,92.9375295 C39.0983662,91.2997761 37.0524507,89.3126607 35.3078028,87.0583984 C35.1793521,86.8924885 35.390831,86.6597918 35.5459014,86.820418 C37.3285775,88.6669855 39.3725915,90.1390403 41.6354789,91.2966059 C42.0062535,88.5784297 42.5160423,85.8748368 43.4654789,83.3553299 Z M82.3498099,1.07961957 C82.3817113,1.05489159 82.4315704,1.04411272 82.461993,1.07961957 C82.9622746,1.66310009 82.8608227,2.55521647 82.876946,3.29461384 L82.8788239,3.36347084 C82.9147394,4.44452759 82.9215,5.52220274 82.9179085,6.60389354 L82.9067113,10.0470012 L82.9067113,10.0470012 C82.9052089,10.5204258 82.8668156,11.0132217 82.8910943,11.4894666 L82.9037535,11.6737644 L82.9037535,11.6737644 C83.1665704,11.9430247 83.2886831,12.3321205 83.1995282,12.7229072 C83.1834718,13.2242301 82.9215,13.6424924 82.5393169,13.9054121 L83.3584278,15.0679444 L83.3584278,15.0679444 L84.178331,16.2298427 C85.8682606,18.6276117 87.5767817,21.0040344 89.3573451,23.3358622 C91.1729789,25.7133417 93.1098803,28.0012086 95.1367817,30.2009425 C96.126993,31.2758701 97.1341056,32.3357918 98.164669,33.3720423 C98.5834542,33.7932106 99.0126972,34.203917 99.4371569,34.6192303 L99.8594577,35.0366372 C100.108965,35.2862419 100.422908,35.533099 100.588542,35.8494904 C100.685937,36.0361127 100.70812,36.496011 100.742979,36.5720971 C101.055655,37.2596196 100.522204,38.3558935 99.6357254,38.012872 L99.675951,37.9860957 C99.8373505,37.8737995 99.7339284,37.872171 99.3655141,37.9813808 C99.1331197,37.9806123 98.9152173,37.9270935 98.711648,37.821142 L98.651007,37.787784 C98.3643332,37.6420498 98.1084418,37.3599909 97.8755232,37.1344374 L97.8177676,37.0793378 C97.285162,36.5801284 96.7774859,36.0506959 96.2670634,35.528872 C95.2016408,34.4402067 94.1603028,33.3282928 93.1521338,32.1865785 C91.1408662,29.908645 89.2341761,27.5383515 87.4284718,25.094508 C85.5891761,22.6054356 83.8795986,19.9884963 82.4093873,17.264191 C81.8514296,16.2302654 81.3399507,15.1764728 80.8495986,14.1104219 C79.8950915,13.803964 79.6734718,12.7884258 79.7400211,11.6443867 C79.387838,10.8239249 79.0705141,9.98655499 78.8829085,9.131009 C78.8573451,9.01370959 79.0079789,8.90317339 79.0981901,9.00567828 C79.4034718,9.35271546 79.6861479,9.72215577 79.957838,10.1011068 C80.1217817,9.29903249 80.3292465,8.56078591 80.4268521,8.09010881 L80.8500211,6.01295812 L80.8500211,6.01295812 C78.4654437,5.88868415 75.8524859,6.86871546 74.2086127,8.58445714 C74.1203028,9.03125166 73.7765704,9.35102466 73.4415,9.76865284 C73.0586831,10.2460932 72.724669,10.7818661 72.4755845,11.3421558 C71.9231197,12.5840501 72.2349507,14.4141323 71.1627676,15.3252634 C71.051007,15.4201597 70.9261479,15.486101 70.7972746,15.5268916 C71.3060433,18.0224555 71.0751579,20.7723126 71.0640669,23.3041072 L71.0636831,23.5269229 C71.0662183,26.3604963 70.9715704,29.1963945 70.8621338,32.0276431 L70.7507958,34.8297202 C70.6065254,38.5667789 70.5128239,42.3056501 70.8758662,46.0222027 C72.5332606,44.5537409 74.2470634,43.1522771 76.0198099,41.8171773 C77.1854437,40.9390873 78.3744473,40.0922249 79.5850403,39.277184 L80.5686891,38.61967 C81.7473929,37.8289489 82.9547333,37.0153262 84.2453028,36.4490912 C85.933331,35.7087311 87.5385423,35.9631969 89.1682606,36.7225785 C90.7912183,37.4790012 92.3657958,38.3575843 93.9576972,39.1774121 C95.5768521,40.0109777 97.1993873,40.8375687 98.8208662,41.6662732 C99.8949507,42.2153613 101.468894,42.7109777 102.256711,43.7216548 C102.306993,43.4980462 102.365514,43.2750716 102.433965,43.0529425 C102.355796,42.7141479 102.386007,42.3480892 102.575937,41.9991499 C105.22312,37.1332321 107.672345,32.1510716 110.104458,27.1750403 C111.335514,24.6568016 112.505937,22.1087624 113.739317,19.5920031 L114.938315,17.1408094 C115.13866,16.7324806 115.339599,16.3244571 115.541641,15.9170442 C115.844176,15.3070873 116.159176,14.7030481 116.465092,14.0945706 C116.594387,13.8375083 116.756434,13.582154 116.882315,13.3226516 L116.941923,13.1925276 C116.944802,13.1857366 117.235305,12.2718572 117.010909,12.3589673 L116.99157,12.3682614 C116.877063,12.433146 116.785373,12.2890051 116.859528,12.1970677 C117.176852,11.8045902 117.618824,12.1522614 117.79988,12.5155726 C118.298777,13.515416 117.384667,15.0849183 117.033043,16.0423159 L117.013754,16.0958466 C115.922556,19.1855765 114.687063,22.2173965 113.421148,25.2386489 C110.993894,31.0311264 108.38643,36.7346254 105.784669,42.4480579 L105.753824,42.5463358 L105.753824,42.5463358 C106.308613,42.1208877 106.901007,41.7347507 107.408261,41.3589699 C108.687908,40.4106411 110.004951,39.5090207 111.31988,38.6103593 C113.731302,36.9622233 116.208085,35.4227552 118.725857,33.9440645 L119.229951,33.6491225 C120.487627,32.9161597 121.733472,32.3218427 123.226289,32.5418583 C124.613183,32.7463679 125.902553,33.4916191 127.155467,34.0970108 L127.284951,34.1591108 L131.15643,36.0003945 C130.742556,34.349326 130.294458,32.7062888 129.826923,31.0693808 C128.915092,27.8765119 127.911782,24.7104845 126.823754,21.5727781 C125.807556,18.6411382 124.709021,15.7415717 123.547092,12.864941 L123.197205,12.0015982 C122.723465,10.8171951 122.25239,9.52567171 120.898331,9.16102074 C119.545162,8.79644149 117.992979,9.33707554 116.756218,8.56543562 C116.643824,8.49526732 116.657768,8.30991311 116.794035,8.27567436 L117.557177,8.08325809 C118.990051,7.72668065 120.669833,7.36797652 122.02481,7.71475068 C123.499246,8.09264501 124.719106,9.33052368 125.434458,10.6174356 C126.229849,12.0490168 126.790526,13.6511229 127.39417,15.1776753 L127.48988,15.4180462 C128.182627,17.1456235 128.848965,18.8835569 129.48657,20.6324806 C130.761359,24.1282145 131.921852,27.666007 132.972275,31.2357135 C133.478472,32.9561049 133.958683,34.6847389 134.420303,36.4176 C134.552979,36.915964 134.771852,37.5202145 134.95143,38.1504611 C135.157204,38.3512438 135.351993,38.5752751 135.534739,38.8307977 C135.837908,39.2547663 135.620303,39.7518622 135.243401,40.0056939 C135.228824,40.4393847 135.132486,40.8472908 134.902204,41.1968642 C134.003261,42.5619757 131.626711,42.2102888 131.723261,40.3751342 C131.737838,40.0942497 131.847275,39.8260462 132.012908,39.5994787 L132.008261,39.5627037 L132.008261,39.5627037 L131.989458,39.4954943 L131.989458,39.4954943 C131.576852,39.2976705 131.162556,39.0772321 130.725866,38.8614434 L126.662768,36.8529816 L126.662768,36.8529816 C125.486007,36.2711342 124.181641,35.3722614 122.873049,35.150555 C121.653091,34.9439084 120.365945,35.853179 119.317626,36.4017916 L119.249599,36.4370442 C116.715444,37.7364258 114.200092,39.0789229 111.694669,40.4324102 C110.471641,41.0933025 109.264458,41.7816705 108.046077,42.4503828 C107.027345,43.0096157 105.927908,43.8123241 104.782838,44.1278701 C104.293754,44.5083006 103.712768,44.4573652 103.245866,44.1697174 C103.459246,45.4917135 103.446148,46.848371 103.511641,48.1999562 C103.599716,50.0068603 103.613174,51.8187742 103.642231,53.6281275 L103.654035,54.3065002 C103.730937,58.3065159 103.772134,62.3075883 103.787345,66.3084493 C103.84143,80.5551499 103.684035,94.8060775 103.647275,109.052778 C103.628683,116.21079 103.486923,123.374931 103.301007,130.530195 C103.222172,133.562161 103.057419,136.590496 102.879449,139.617887 L102.7815,141.269115 C102.574246,144.753224 102.451923,148.2758 101.807134,151.712989 C101.723049,152.161263 100.964599,152.172676 100.890232,151.712989 C100.296835,148.029946 100.263832,144.266099 100.149744,140.539867 L100.125655,139.795158 C99.9885423,135.794297 99.9234718,131.795972 99.9374155,127.792997 C99.9881197,113.54059 100.358472,99.2970599 100.66143,85.0486685 C100.813754,77.8898114 100.916218,70.727784 101.152838,63.5712517 C101.271148,59.9903436 101.405092,56.4117605 101.563965,52.8323319 C101.634951,51.2341538 101.703187,49.6375939 101.809293,48.0418026 L101.857204,47.3579366 C101.890162,46.9117761 101.916782,46.4711108 101.949106,46.0344611 C100.507627,46.561146 99.1893169,45.5859757 97.8925563,44.9187429 C96.3980493,44.1496391 94.9041761,43.3792673 93.4090352,42.6116431 L91.912705,41.8453495 L91.912705,41.8453495 L88.9181197,40.3168016 C87.5698099,39.6284337 86.531007,38.9434474 85.0929085,39.7508055 C79.911993,42.6585628 75.1510775,46.5275413 70.8365704,50.5873691 C70.0092465,51.3659836 68.261007,51.1567468 68.0514296,49.8518701 C67.1562207,44.2773914 67.7006752,38.6222317 68.1577222,33.0308485 L68.3262066,30.9549806 C68.5303732,28.475602 68.7527324,25.9961988 69.0490352,23.5269229 C69.1815423,22.4223217 69.3135085,21.3183969 69.4595366,20.2159058 L69.5719225,19.3893182 C69.7544577,18.0825393 69.8736127,16.7835804 70.2627676,15.5302732 C70.1400211,15.4905393 70.0219225,15.4254434 69.9162887,15.3252634 C68.7462887,14.214829 69.3103732,12.2879483 69.8442465,10.967009 C70.3713592,9.66318904 71.1752324,8.52527906 72.1819225,7.5458818 C72.4014296,7.3319953 72.7109366,7.19440626 73.0219225,7.18722035 C75.4626972,5.56954521 78.1403028,4.76218708 80.9271338,5.64520861 C81.0054085,5.27080157 81.085228,4.89698894 81.1692663,4.5241274 L81.2548099,4.15159609 C81.4715704,3.22651585 81.5520634,1.69845323 82.3498099,1.07961957 Z M107.365099,147.168895 C108.122493,146.960503 108.951718,147.180096 109.506718,147.735314 C110.061507,148.290531 110.281225,149.119869 110.072493,149.87756 C109.968127,150.250593 109.779465,150.574382 109.506718,150.849349 C109.251688,151.102712 108.954214,151.283546 108.614464,151.39185 L108.53531,151.415556 L108.411507,151.467126 C108.031859,151.569208 107.652,151.569208 107.272563,151.467126 C106.909606,151.365255 106.594606,151.181591 106.327141,150.916135 C106.061577,150.648566 105.877986,150.333443 105.776155,149.970132 C105.674113,149.590335 105.674113,149.210539 105.776155,148.830742 L105.827915,148.706891 L105.827915,148.706891 C105.932282,148.333858 106.120944,148.009858 106.39369,147.735314 C106.668338,147.46246 106.992211,147.273513 107.365099,147.168895 Z M152.337486,71.6664117 C152.461923,71.5235389 152.663683,71.7065683 152.586359,71.8585292 C151.406641,74.1721808 150.091711,76.4693472 148.799387,78.7242434 C148.902908,79.3492063 149.005585,79.9690967 149.123683,80.5733472 C149.627134,83.1488618 150.243824,85.6778795 150.645866,88.2779108 C152.090937,97.6236094 152.841148,107.070756 153.48488,116.500361 C154.130514,125.963782 154.21312,135.431429 154.310092,144.913449 C154.318542,145.735179 153.686641,146.690271 152.83988,146.845191 C152.452204,146.915993 152.162134,146.902255 151.775303,146.845191 C150.894106,146.715422 150.342908,145.70559 150.305092,144.913449 C150.052415,139.614052 149.712486,134.321418 149.318683,129.030263 C148.620655,119.649692 148.194106,110.244604 147.630232,100.85431 L147.431645,97.5723814 C147.218527,94.0162124 147.023584,90.4575788 146.960092,86.8961025 C146.917838,84.5365879 147.043965,82.1777072 146.96643,79.8209401 C146.89481,77.6450888 146.674246,75.2792337 147.153824,73.1414254 C147.17157,73.0613237 147.29812,73.0410341 147.334669,73.1177542 C147.833261,74.1677425 148.149106,75.3090341 148.392486,76.4739969 C149.677415,74.8482904 150.986007,73.218991 152.337486,71.6664117 Z M68.1691901,14.1901552 C68.3496127,14.1772086 68.3424296,14.448371 68.1691901,14.4684493 C65.6475059,14.7610521 63.2114901,15.787616 60.8304678,16.6601559 L60.6265141,16.7345472 C58.2210211,17.6076352 55.8757394,18.622962 53.6187676,19.8331538 C49.2060211,22.1994317 45.1539085,25.2504845 41.5712324,28.7432595 C27.2673592,42.6864611 20.7486972,62.7930599 15.9721479,81.6881988 C13.3182042,92.1861793 11.4309507,102.861694 10.2077113,113.619001 C9.60285211,118.939111 9.17524648,124.27951 8.9259507,129.628152 C8.79834507,132.369365 8.71785211,135.113115 8.68426056,137.857076 C8.66693662,139.262555 8.6618662,140.668457 8.66355634,142.073937 C8.66440141,142.718132 8.77933099,143.529083 8.60714789,144.154469 C8.44742958,144.73378 7.99700704,145.24398 7.66383803,145.726704 C7.26897887,146.299463 6.55933099,146.26924 6.15897887,145.726704 L6.01134541,145.529247 C5.58436766,144.962672 5.16658936,144.420923 5.10559859,143.68041 C5.0403169,142.886578 5.08637324,142.06823 5.08341549,141.270805 C5.07665493,139.664332 5.09651408,138.057647 5.12862676,136.451596 C5.19052817,133.373068 5.31179577,130.295807 5.49200704,127.221929 C5.85792254,120.983925 6.46024648,114.758602 7.32264085,108.569631 C8.85559859,97.5688485 11.1533451,86.6731068 14.1630634,75.9821636 C17.0025,65.8967389 20.3663028,55.8411147 25.1582746,46.499009 C29.6075704,37.825193 35.4444718,29.7560501 43.1464437,23.694101 C46.7280634,20.8751108 50.627007,18.5257409 54.8305986,16.7565276 C56.950669,15.8642067 59.177007,15.1356822 61.441162,14.7203789 C63.6801761,14.3097252 65.9094718,14.3670012 68.1691901,14.1901552 Z M107.799169,129.342279 C108.199099,129.339321 108.645085,129.427242 108.988183,129.648526 L109.446634,130.00296 L109.446634,130.00296 C109.570859,130.16253 109.694451,130.322733 109.81762,130.48336 C110.10431,130.857027 110.142338,131.4617 110.082549,131.907015 C110.069028,132.204385 109.980718,132.480831 109.81762,132.737199 L109.468606,133.189277 L109.468606,133.189277 C109.133113,133.462976 108.853394,133.658264 108.447127,133.789935 C108.234739,133.858603 108.030224,133.873002 107.826342,133.862561 L107.758394,133.858201 L107.799169,133.863696 L107.727761,133.855665 L107.727761,133.855665 C107.661423,133.849959 107.594873,133.842773 107.528113,133.833685 C107.48269,133.827978 107.437056,133.824596 107.391634,133.818256 C107.347901,133.814663 107.305648,133.812972 107.261493,133.816988 C106.745155,133.86562 106.22607,133.572667 105.859521,133.236197 C105.52931,132.93291 105.232901,132.289771 105.278958,131.833888 L105.298603,131.643363 C105.333415,131.321948 105.361923,131.195494 105.498042,130.872667 C105.630296,130.5586 105.815155,130.28152 106.066775,130.047344 C106.548465,129.59907 107.138113,129.346929 107.799169,129.342279 Z M106.200866,105.822542 C106.886218,105.075419 108.06319,105.020468 108.91312,105.472335 C109.120162,105.58266 109.310303,105.75956 109.492838,105.907083 C109.952768,106.279059 110.133401,106.950096 110.158754,107.515458 C110.183894,108.07448 109.889176,108.738331 109.492838,109.124257 L109.396711,109.217462 L109.396711,109.217462 C109.15988,109.447834 108.820585,109.648194 108.489317,109.709063 C107.955021,109.807341 107.506289,109.804382 107.008754,109.5943 C106.581237,109.413896 106.21288,109.123852 105.962243,108.730278 L105.92157,108.663724 C105.904387,108.636108 105.888143,108.608022 105.872901,108.579341 L105.850796,108.535858 C105.374599,107.619865 105.502627,106.582981 106.200866,105.822542 Z M106.555838,82.1788908 C106.864923,82.081881 107.173796,82.0681432 107.48288,82.1374661 C107.692669,82.1378888 107.888303,82.1909378 108.06957,82.2959789 C108.266472,82.3511413 108.437599,82.4508986 108.582528,82.5952509 C108.757035,82.6983898 108.896261,82.8374583 108.99957,83.012245 C109.205134,83.2369104 109.343725,83.5004642 109.415768,83.8031178 L109.498585,84.4213174 L109.415768,85.0397284 L109.181261,85.5953683 L109.181261,85.5953683 C109.116824,85.6794857 109.051965,85.7636031 108.986472,85.8472978 C108.882951,86.0225072 108.743514,86.1622098 108.568373,86.2657714 C108.4545,86.3790552 108.323937,86.4638067 108.177951,86.522562 C107.660345,86.8936932 106.970768,87.0147969 106.357458,86.8457166 C105.993232,86.7438458 105.676965,86.559337 105.408866,86.2928243 C105.142458,86.0244094 104.958021,85.708018 104.85619,85.3438614 L104.814182,85.0530126 C104.760067,84.6628856 104.75144,84.4467947 104.861894,83.9508517 C104.910275,83.7327382 105.050768,83.4252235 105.124289,83.2956658 C105.438655,82.7427734 105.952246,82.3638223 106.555838,82.1788908 Z M133.393711,65.1689753 C134.281204,65.1627194 135.168697,65.164444 136.056082,65.1742574 L136.721599,65.1831358 C137.836035,65.2006779 138.790542,65.0857033 139.666669,65.8592454 C140.302585,66.4205918 140.022444,67.3623687 139.418852,67.7852806 C138.504275,68.425672 137.357092,68.1035742 136.305824,68.0329832 C135.197092,67.9585879 134.087514,67.8968736 132.977514,67.8469949 C130.828289,67.7508305 128.678218,67.6895389 126.52688,67.6800282 C124.38019,67.6709401 122.230331,67.6912297 120.083852,67.7258912 C117.899768,67.761398 115.625683,67.9649284 113.453852,67.7387836 C113.155542,67.7077151 113.088359,67.3152376 113.382866,67.2131554 C115.429415,66.5049205 117.731599,66.2753941 119.876387,66.0046544 C122.08857,65.725038 124.300754,65.5272141 126.52688,65.3989245 C128.81343,65.2676759 131.103359,65.185038 133.393711,65.1689753 Z M106.551771,58.2125993 L106.625007,58.214029 C107.015627,58.2150153 107.381217,58.3069517 107.722122,58.4898383 L107.794796,58.5304204 L108.26381,58.8926748 C108.550923,59.1822247 108.749725,59.5231327 108.859585,59.9158215 L108.942401,60.532119 L108.942401,60.532119 C108.954655,60.8512579 108.887894,61.1488391 108.742965,61.4252853 C108.649373,61.7127217 108.489655,61.9612697 108.26381,62.1713519 C108.05381,62.3972853 107.805148,62.5570661 107.518035,62.6506943 C107.262954,62.7845278 106.989871,62.8517297 106.698288,62.8518013 L106.625007,62.8504204 C106.206908,62.8489409 105.816908,62.7434771 105.455641,62.5338176 L104.986415,62.1713519 L104.986415,62.1713519 C104.699303,61.8820133 104.5005,61.5411053 104.390641,61.1484164 L104.307613,60.532119 L104.307613,60.532119 C104.295782,60.21298 104.36212,59.9149761 104.507472,59.6389526 C104.600852,59.3515162 104.76057,59.1027569 104.986415,58.8926748 C105.196415,58.6667413 105.444866,58.5069605 105.732401,58.4135436 C105.987288,58.279515 106.260355,58.2124782 106.551771,58.2125993 L106.551771,58.2125993 Z M113.42193,3.7538771 C113.921155,3.03042505 114.826014,3.67377534 114.696507,4.25541135 C114.730732,5.88893777 114.814183,7.47427632 115.185803,9.07440939 C115.355873,9.80694951 115.578761,10.540335 115.922493,11.2113722 L116.066861,11.4939403 C116.511811,12.3732986 116.857198,13.2026253 116.257986,14.1673174 C115.975521,14.6221432 115.465099,14.9636853 114.911789,14.9398027 C112.457915,14.8339162 112.120732,11.417016 111.971577,9.50957965 C111.817775,7.54507867 112.296085,5.38613542 113.42193,3.7538771 Z" id="ðŸ–-Ink" fill="#000000"></path>
                    </g>
                    <g id="head/hat-beanie" transform="translate(78.591549, 38.043053)">
                        <path d="M51.7185372,12.4075623 C61.1773122,12.4075623 72.5261313,16.9948296 73.4910373,17.0865749 L73.5170858,17.0879697 C74.0247475,17.0879697 76.0083955,18.5998047 79.4680297,21.6234749 L75.7208552,28.9349282 L76.0240988,29.2246001 C77.4752121,30.6164137 78.714028,31.8850112 79.6918691,32.8850476 C87.6760202,41.0504247 89.1110361,73.1100521 87.2294388,84.2903025 C85.3478415,95.4705529 81.862756,106.410634 65.6377222,106.410634 C49.4126883,106.410634 31.3619694,96.6510448 28.581369,93.6117924 C26.7276354,91.5856241 24.6454088,90.614914 22.3346891,90.6996621 C22.2397193,90.5797811 22.1455157,90.4602512 22.0520783,90.3410724 L21.7120996,90.2928919 C18.514111,89.8295513 16.2226766,89.2059005 14.8378832,88.4221476 C12.1329919,86.8912577 9.15998878,78.8431922 9.15998878,77.0703055 C9.15998878,75.3151477 4.72067039,62.5469812 4.63188402,61.1958146 L4.63053425,61.1583879 C4.63053425,60.0288611 -1.16898899,54.8365017 -1.16898899,53.1875104 C-1.16898899,51.5385191 -2.33797797,51.6385642 -1.16898899,45.8277744 L-0.829364528,44.1207341 C0.414623318,37.9339543 2.84944751,27.6895419 12.1329919,23.2380361 C22.3346891,18.3462714 42.1642191,12.4075623 51.7185372,12.4075623 Z" id="Path" fill="#FFFFFF"></path>
                        <path d="M10.5582887,23.008227 C15.6461915,17.6057331 44.5310604,9.24935967 59.1447173,11.0207121 L59.5831479,11.0775029 C60.7493451,11.2254481 61.8986408,11.4494795 63.0329366,11.7538239 C66.6992746,12.6104266 70.4864577,13.9074834 73.5158239,16.0740352 C76.0449085,17.8464188 84.023007,20.7408611 81.6715986,25.3774638 C82.5435,27.0300117 82.8688521,29.0716556 82.2796268,30.6992642 C82.2054718,31.261456 82.0322324,31.7792642 81.8106127,32.3160939 C83.6733592,35.0659726 85.1482183,38.1757808 86.3420915,41.1336282 C88.4283592,48.5775969 89.7265986,56.3244305 89.9167394,63.9193033 C90.5492746,78.3486106 88.9677254,95.5844384 76.405331,104.915131 C68.8163873,110.827656 56.9287817,111.026325 48.4005423,103.695429 C47.9165282,103.122458 45.6405423,101.576219 46.4000493,101.305057 C46.6261056,101.543883 46.8585,101.776368 47.0951197,102.004626 C47.0843451,101.979264 47.0822324,101.953902 47.086669,101.926427 L46.8641141,101.724804 C46.4450174,101.336936 45.9020777,100.774384 46.5204718,100.88447 C46.5477254,100.916172 46.5775141,100.943648 46.6068803,100.97535 C46.737853,101.053946 46.8367989,101.122085 46.9137866,101.18216 L46.9533888,101.213866 L46.9411537,101.201134 C46.5849376,100.82114 46.3713786,100.433564 46.9039807,100.681094 L46.9744859,100.715389 C47.2113169,100.964783 47.4519507,101.203609 47.6970211,101.436094 C47.693007,101.408618 47.6970211,101.381143 47.7120211,101.351554 L47.4835246,101.13073 C47.2604763,100.912076 47.2945191,100.911143 47.4035704,100.734411 C46.9294859,100.069714 47.8144859,100.464517 47.8765986,100.723843 C48.430331,100.592806 48.9164577,101.63265 49.2730775,101.75946 C64.906669,113.783178 87.5940634,103.114427 87.226669,69.6101213 L87.2210589,68.9545949 C87.113608,58.2413582 86.2123986,47.2301458 81.7829366,37.5322192 C81.352162,36.5980509 80.8702606,35.6892446 80.3401901,34.8100274 C79.9746972,34.1506145 79.5838521,33.5081096 79.1634296,32.8825127 C77.9864577,32.7874051 76.8244859,32.5718278 75.6796268,32.2378943 C75.2864577,32.1385597 74.8977254,32.0286575 74.5092042,31.8997339 C68.830331,32.2095734 63.278007,32.5466771 57.5832887,32.8662387 L55.8045153,32.9770686 C50.9804102,33.2873268 45.9913648,33.7842578 42.0984296,36.7692446 C38.2787113,39.4867867 38.2613873,44.8455734 34.9915986,47.8292055 C30.3289225,50.9950215 30.2949085,53.8497299 29.3970211,58.5150763 C29.4635704,62.0319452 31.9011761,67.1417613 27.428007,68.6218474 C28.1826549,69.6982544 27.1307535,69.1810802 27.0479366,68.8036086 C27.0394859,68.8057221 27.0310352,68.8078356 27.0246972,68.8078356 C27.697162,70.0583953 26.7086408,69.2709041 26.6211761,68.8691272 C26.5683592,68.8543327 26.5155423,68.8162896 26.4627254,68.7634521 C27.1402606,69.859092 26.0450493,69.0918904 26.1099085,68.8923757 C24.8006831,66.8792642 22.1061761,66.5666771 20.2068803,67.1001252 C20.1836408,67.1719843 20.0993451,67.1783249 20.0465282,67.1402818 C11.9704014,68.8911076 14.0541338,85.6165245 22.330331,83.9996947 C22.6846268,83.9274129 22.6761761,84.0975499 22.7465282,84.1138239 C22.555331,83.6116556 23.0942746,83.8160313 23.0885704,83.9214951 L23.1214093,83.9199 C23.1474306,83.9176047 23.1367864,83.9147554 23.1561761,83.9214951 C22.9713169,82.894544 24.0115986,84.3824501 23.9294155,84.4435303 C23.9613169,84.4245088 23.9972324,84.4139413 24.0289225,84.4097143 L23.9931125,84.3122287 C23.8204664,83.8521113 23.835267,84.0433546 23.8364577,83.7798904 C23.7067394,83.4541996 23.6972324,83.5966497 23.7276549,83.384454 C24.1835704,83.0310763 24.3181479,84.103045 24.4702606,84.181456 C24.2095563,83.8179335 24.4168099,83.5209863 24.6627254,83.7183875 C26.5267394,87.6406262 28.9345563,91.3259413 32.0463169,94.2290489 C32.386669,94.4974638 32.7310352,94.7616517 33.0878662,95.011045 C34.4114577,96.1643836 36.4417394,96.9060117 37.6808239,97.9276791 C37.6808239,97.9445871 37.6725845,97.9657221 37.6599085,97.9868571 L37.6882711,98.0124834 L37.6882711,98.0124834 L37.7169507,98.0396947 L38.1479366,98.246818 C38.2746972,98.3546067 38.3887817,98.4750763 38.4899789,98.608227 C38.5979366,98.7329237 38.6927958,98.8703014 38.7732887,99.0161331 C38.8134296,99.1936673 38.7246972,99.2676399 38.5556831,99.1915538 C38.4815282,99.1661918 38.4077958,99.1366027 38.3338521,99.1091272 C38.3380775,99.1154677 38.3399789,99.1196947 38.3444155,99.1239217 C38.3686585,99.1606061 38.5327713,99.5412065 38.3436663,99.4792782 L38.3211761,99.4705362 C38.2174437,99.4324932 38.1141338,99.3902231 38.0127254,99.3500665 C38.1331479,99.5001252 38.2427958,99.662865 38.3399789,99.8002427 C38.4437113,99.9080313 38.5068803,100.034841 38.5324437,100.17856 C38.528007,100.258873 38.4838521,100.292689 38.4035704,100.282121 C38.2810352,100.241965 38.1606127,100.199695 38.0399789,100.155311 L38.0742856,100.220782 C38.1595165,100.388494 38.2806468,100.669779 38.0655423,100.575898 C37.8815282,100.518834 37.7042746,100.453315 37.5268099,100.381456 C37.5118099,100.411045 37.4824437,100.421613 37.4232887,100.394137 C36.8592042,100.193354 36.3141338,99.9481879 35.7923028,99.658638 C35.3338521,99.3247045 34.8709648,98.9971115 34.4106127,98.6652916 C33.9773028,98.4053307 33.558993,98.1157808 33.1599085,97.7903014 C30.4882183,96.0639922 28.1492746,93.8710215 26.2937113,91.4286575 C23.1904014,94.1172446 16.9856831,91.5487045 13.1475845,89.4440783 C9.75272535,87.5630607 8.41835915,84.0850802 8.07335915,80.3353033 C7.35610563,75.2869902 3.23216197,73.5589902 3.51906338,62.4821213 C3.51272535,62.4842348 3.50617606,62.4842348 3.49772535,62.4842348 C3.34772535,62.4398513 3.20216197,62.3806732 3.06483803,62.3045871 C2.92328873,62.236955 2.79019014,62.1566419 2.66533099,62.0594207 L2.51110563,61.8459569 L2.51110563,61.8459569 C2.43103521,61.8015734 2.35920423,61.7550763 2.30427465,61.7085793 L2.27578788,61.7453318 C2.18561268,61.8541923 2.24622887,61.6904031 2.25145775,61.6578552 L1.98353948,61.2933606 C1.34828543,60.4256995 0.65134331,59.4521507 0.0836408451,58.673589 L0.0657588593,58.7052238 C0.052916499,58.7291008 0.0461257545,58.7463539 0.0521619718,58.7539022 C-1.29889437,56.8120157 -2.56945775,54.4664501 -2.92248592,52.1957025 C-3.3393169,50.4465675 -3.17642958,48.6441722 -2.81283803,47.0239609 C-1.25389437,41.3502622 3.8528662,28.5111546 10.5582887,23.008227 Z M47.2233139,101.472664 L47.1386515,101.397234 L47.2130932,101.49054 C47.2521032,101.53876 47.2920401,101.582099 47.3570915,101.626309 C47.3528662,101.611515 47.3528662,101.59672 47.3547676,101.579812 C47.3116263,101.546867 47.2675152,101.510839 47.2233139,101.472664 Z M59.0801197,13.8715538 C49.1699789,13.0191781 39.4227254,15.203272 29.9659648,17.8470528 L29.3135977,18.0346301 C23.9363843,19.569572 18.250545,20.9507731 13.7063873,24.2361722 C7.35758451,29.1008219 4.0791338,36.8396243 1.21814789,43.9847436 C-1.28009155,49.2934403 -0.00297887324,55.2795147 3.76180986,58.9863875 C4.1535,55.3027632 4.8213169,51.7269276 5.86497887,48.1798356 C6.08279577,47.6256751 5.91800704,47.4441252 6.38744366,47.3718434 C7.09645775,56.9307945 3.60441549,63.9932759 10.5149789,75.3220744 C13.5135,80.667546 10.0423732,84.5787945 18.5099789,87.3916556 L18.7391283,87.4792497 C20.50323,88.1451832 22.42975,88.6708356 24.1575845,88.2985597 L24.0027873,88.0466646 C23.8449167,87.7872612 23.7970101,87.6613386 24.0265986,87.5503796 C24.0204718,87.5376986 24.0120211,87.5250176 24.0033592,87.5102231 C23.8176549,87.1593816 23.6380775,86.8043131 23.4667394,86.4450176 C23.3972324,86.4682661 23.3275141,86.4851742 23.2554718,86.5041957 C23.302162,86.5908493 23.3082887,86.6775029 23.1775141,86.707092 C22.7119648,86.8668728 22.2339009,86.9309166 21.7445249,86.9009418 L21.6394859,86.8930802 C21.0865986,86.8592642 20.7382183,86.7584501 20.4265986,86.6648219 C20.3232887,86.6479139 20.2197676,86.6310059 20.1181479,86.6098708 C19.1156831,86.3875303 18.0544859,85.8219569 17.3676549,85.261456 C9.5385,80.812955 10.3476549,65.6699178 19.9979366,64.2384423 C20.1958944,54.7040078 24.7290634,38.6185597 32.2523028,29.5332446 C39.0525845,21.1762427 57.6175141,17.5541213 70.5335704,18.8313112 C70.7218099,18.8936595 70.9100493,18.9566419 71.0982887,19.0202583 C73.0909648,19.1973699 74.9900493,20.0854638 76.9842042,20.4980196 C75.5524437,19.4245714 73.9282183,18.7095734 72.2551901,18.1019413 C68.9218099,16.0621996 65.1004014,14.9585284 61.4085,14.1801252 C60.6437113,13.9920235 59.8683592,13.8884618 59.0801197,13.8715538 Z M19.5562394,71.8977558 C20.0751127,71.6158145 20.0157465,71.8880337 20.1351127,71.8089886 C23.8673662,71.5044329 27.8918028,74.7733879 29.9780704,77.4985386 C29.8132817,77.6697323 29.367507,77.1624916 29.289338,77.0821785 C29.2787746,77.092746 29.2660986,77.1012 29.2534225,77.105427 L29.3115156,77.1874494 C30.1571007,78.4013886 28.4808213,76.9729193 28.3238451,76.6784994 C28.2963803,76.6932939 28.2689155,76.7017479 28.2372254,76.6954074 C28.3701127,76.8258106 28.7759577,77.1658732 28.8456761,77.4076579 L28.9532735,77.4972352 C29.9678658,78.3664083 29.8836617,79.0202421 28.7318028,77.785975 C28.7590563,77.8430395 28.7696197,77.8958771 28.7506056,77.9381472 L28.7902669,77.9645876 C29.3566853,78.3605602 29.8225102,79.4643749 28.6386338,78.3312587 C28.7618028,79.1589065 27.4654648,77.5591961 27.4238451,77.5703977 C25.1806056,75.808793 21.8778592,74.0955875 19.0639859,73.865427 L18.9671387,73.8542957 C18.4507899,73.7879265 18.206662,73.6346627 18.3879296,73.2968947 C17.7520141,73.1455679 17.9009577,72.8323468 18.2020141,72.8424916 C17.753493,72.5474466 18.1572254,72.2652939 18.417507,72.3754074 C18.2385634,71.879791 18.9562394,72.2099202 19.0217324,72.1408086 C19.3941972,71.5661472 19.4945493,72.0454896 19.5562394,71.8977558 Z M11.7330211,41.1779906 C13.5256268,40.5211139 18.8206268,42.487517 18.3970352,45.0917753 C18.1447817,45.6896853 17.3136549,46.0322841 16.7295,45.6947577 L15.9670715,45.1824955 C14.6402471,44.2935638 13.4435993,43.5140899 12.0190775,42.7388125 C11.2437254,42.3539436 10.9099225,41.5368634 11.7330211,41.1779906 Z M21.9319437,37.3079131 L21.2396325,36.8572074 C17.5035897,34.4111231 12.2220634,30.7047213 21.5886338,34.5394356 C22.656169,34.9974317 24.0746197,35.2683828 24.6570845,36.2854004 C25.5720845,38.1598661 23.1640563,38.2858309 21.9319437,37.3079131 Z M22.3517746,26.3327037 C22.0519859,25.1945824 25.782338,26.5301049 26.8682535,26.8822145 L27.0336531,26.944708 C28.0899945,27.3384701 29.3008732,27.7037542 29.9326901,28.6157096 C30.6729718,29.87578 29.174662,30.1367977 28.2465634,29.5676313 C26.3436761,28.3236235 24.2574085,27.3850168 22.3517746,26.3327037 Z M31.8377535,21.0310027 C29.7380472,18.7371398 35.3574566,20.9345822 36.199214,21.5445568 L36.2232465,21.5625487 C36.8513451,22.0049049 36.7239507,22.957672 36.1338803,23.2374998 C34.4549366,23.2694137 33.2194437,21.8694294 31.8377535,21.0310027 Z M41.3925423,18.5177941 C38.0545141,16.1179115 42.4516268,17.2594145 43.9788803,18.1999233 C45.0197958,19.1182403 43.9476127,20.6684947 41.3925423,18.5177941 Z" id="ðŸ–-Ink" fill="#000000"></path>
                    </g>
                    <g id="face/Happy-Grin" transform="translate(112.183099, 77.354207)" fill="#000000">
                        <path d="M19.7211365,39.4118615 C23.3427017,38.9721514 26.8531681,40.0813242 30.39357,40.6404383 C32.2628533,40.9354736 34.1344555,41.1557498 36.0260851,41.237669 C36.4066034,41.2543055 36.7873326,41.2639926 37.1680618,41.2717844 C37.2034785,40.9365265 37.3911025,40.6286453 37.7975509,40.4441692 C38.6306859,40.0663724 39.297489,39.8960058 40.2122088,39.9324377 C41.04956,39.9655002 41.8898626,40.0516312 42.7143542,40.2026235 C44.2115517,40.4772317 45.7154952,41.1003649 46.8106713,42.1830034 C49.345282,44.6881713 48.9594933,48.7121078 47.0010359,51.4407108 C42.9548102,57.0790106 35.5698828,57.3406925 29.2449892,57.2671358 L28.6613154,57.2594981 C22.9023122,57.1771578 14.6628774,58.0361507 12.0464711,51.4813545 C11.0843182,49.0709516 11.217974,46.2770661 12.3959998,43.965219 C13.8010718,41.2077653 16.7587852,39.7715477 19.7211365,39.4118615 Z M37.7102741,48.7997129 L37.6586248,48.8018188 C35.0034288,48.9041651 32.3486544,48.9761865 29.6919827,49.0231479 C29.7714593,49.7056672 29.8526225,50.388397 29.9453805,51.0694422 C30.0181111,51.6053914 30.0961121,52.1407089 30.1772753,52.6753946 C30.2116379,52.9017779 30.3377044,53.2532511 30.3020769,53.4775285 L30.2892173,53.5661865 L30.2892173,53.5661865 C30.4256136,53.6278891 30.5493612,53.7272872 30.6414867,53.8715407 C30.6735303,53.9214503 30.6967198,53.9717811 30.7199093,54.0219013 C32.7825086,54.0381167 35.0021639,53.9981048 37.1048178,53.6230456 L37.109034,53.5773477 L37.109034,53.5773477 C37.1471913,53.3086361 37.2589224,53.12774 37.4073351,53.003703 C37.5551154,52.146816 37.5416233,51.2337017 37.5987538,50.3835535 C37.6343813,49.855396 37.6729601,49.3276597 37.7102741,48.7997129 Z M27.6629027,49.0593692 C25.7490909,49.0919403 23.8344463,49.1170239 21.9210416,49.0936505 L21.0524238,49.0802176 L21.0524238,49.0802176 C21.2358315,50.0647216 21.4354719,51.0458562 21.6013821,52.0368885 C21.77446,53.069828 20.865643,53.7264448 20.0790979,53.6999106 C20.1674287,53.7144413 20.2555488,53.7293931 20.3438796,53.7418178 C22.8013326,54.0895004 25.3530192,53.9972624 27.8469429,53.9945248 C27.7127601,53.2110912 27.7671242,52.3271177 27.7470493,51.6731982 L27.7432227,51.5719078 C27.7050654,50.7339737 27.6782921,49.8966715 27.6629027,49.0593692 Z M14.663299,48.8786838 C14.7297053,49.3906259 14.858934,49.8916174 15.0522499,50.3580722 C15.8691523,52.328765 17.7420194,53.2484076 19.7236663,53.6356809 C19.3798295,53.5169087 19.106826,53.2315604 19.03789,52.7427832 C18.866077,51.5274735 18.8043086,50.2919472 18.7996707,49.0578951 C17.4186315,49.0450492 16.0283164,49.0155667 14.663299,48.8786838 Z M44.9122957,48.4579268 C43.9290616,48.689996 42.7864524,48.5836485 41.8217698,48.627451 C40.9180124,48.6685159 40.0138333,48.704316 39.1100758,48.7409585 C39.1526601,49.3581952 39.1941904,49.9752212 39.2393045,50.5920367 C39.297489,51.389327 39.3029701,52.231894 39.4555991,53.0258149 C41.274498,52.4047876 42.9042972,51.4089118 44.1270155,49.816437 C44.431641,49.4196872 44.7044336,48.9540747 44.9122957,48.4579268 Z M19.3056231,42.6452465 C17.6688671,43.032941 16.1198095,43.851922 15.287307,45.3502634 C14.7931601,46.2393706 14.5758114,47.2931585 14.6175525,48.3315733 C16.0009107,48.1704727 17.4080908,48.1094018 18.8085249,48.0588604 C18.8131628,47.8065747 18.8191124,47.5545697 18.8266861,47.3030952 L18.8482617,46.6585603 C18.8864346,45.4292579 18.9056154,43.8855582 19.3056231,42.6452465 Z M27.7773744,42.7951859 L27.056853,42.7142256 C25.0555444,42.486111 23.0553101,42.2466464 21.0538995,42.3839054 C20.7642417,42.4039114 20.4701569,42.4354997 20.1754396,42.4786705 C20.5291847,43.7556828 20.49946,45.2554984 20.6472402,46.5196647 C20.7043707,47.008442 20.7764689,47.4932181 20.8563672,47.9760989 L21.2035771,47.9598836 L21.2035771,47.9598836 C23.3511342,47.8434278 25.5007995,47.7718275 27.6500431,47.6865389 C27.649885,47.2828396 27.6520985,46.8789034 27.6585514,46.4748191 L27.6664865,46.0706888 C27.6909409,45.0385916 27.6243238,43.8759292 27.7773744,42.7951859 Z M37.8272756,42.6313476 C35.731157,42.9697643 33.5648375,43.0417858 31.505822,43.0443128 C30.6834385,43.0453658 29.8614767,42.9948244 29.0399365,42.9219606 C29.0934831,43.3595647 29.1213105,43.802223 29.1615759,44.2337201 C29.2426969,45.1057274 29.3354211,45.976387 29.4361866,46.8462379 L29.5260724,47.6073574 L29.5260724,47.6073574 C32.1677764,47.4875322 34.8092696,47.3580199 37.4503411,47.2238747 L37.8230594,47.2038687 L37.8230594,47.2038687 L37.9275292,45.7411246 C37.9986436,44.7657383 38.0768788,43.7905704 38.1873451,42.8196143 L38.1044954,42.7897106 L38.1044954,42.7897106 C38.0070995,42.7496987 37.9147632,42.6945243 37.8272756,42.6313476 Z M38.7375683,42.9944032 C38.8530941,44.3735512 38.9169706,45.7583851 39.0019284,47.1398496 L40.7430293,47.0468004 C41.0331868,47.030975 41.3233364,47.0148299 41.6134861,46.9981231 C42.7417599,46.9330511 44.1915244,46.591265 45.3069386,46.9100969 C45.3921073,45.8956892 45.1022387,44.9073946 44.1870973,44.2259283 C42.5804876,43.0289398 40.5347534,43.4551722 38.7375683,42.9944032 Z M32.7889225,30.6655961 C35.3815986,29.1802262 41.8867394,27.6620971 42.2987113,32.3297683 C42.488174,34.4777135 40.8919247,36.2574498 39.0279579,37.0516053 L38.9579366,37.0809229 C37.2096972,37.7999366 34.1110352,38.6119444 32.5981479,37.0528133 C31.338993,35.7551225 33.0090634,33.4283671 34.5737113,34.4914591 C35.3778002,35.0375927 37.0703018,34.6351882 37.9675372,34.3753254 L38.0237113,34.3589425 C38.9919507,34.0742536 40.2827958,33.1631225 39.8824437,31.9704728 C39.5281479,30.9154121 38.0205423,30.7226607 37.0763873,30.6884219 C35.6670211,30.6379092 34.2954718,30.9652908 32.898993,31.0718114 C32.6777958,31.0887194 32.6095563,30.7683123 32.7889225,30.6655961 Z M43.5287113,23.1599765 C47.0475845,22.9951233 49.2365282,26.8387397 48.4273732,29.9880705 C48.2875141,30.5314521 47.6799085,31.0649002 47.0934296,31.00382 L46.9456572,30.9902158 C46.8705845,30.9829977 46.795162,30.9735123 46.7258239,30.954364 C46.1689225,30.8000783 45.6696972,30.2205558 45.7102606,29.6198982 L45.7210365,29.4448758 C45.8031384,27.9571532 45.641973,26.2430931 43.8745563,25.8828023 C42.3756127,25.5771898 41.5387817,27.020501 41.5210352,28.3490489 C41.5176549,28.5849159 41.2527254,28.7495577 41.0442042,28.6227476 C39.9606127,27.9631233 39.773007,26.6508493 40.1868803,25.5207593 C40.7114577,24.0888611 42.0242746,23.2303562 43.5287113,23.1599765 Z M17.4154014,23.9843272 C19.9761761,23.1296266 22.7389225,24.4951609 23.9788521,26.7599906 C24.4138521,26.8859554 24.8482183,27.2213683 24.7877958,27.7349495 C24.7005423,28.4738301 24.5691338,28.9396462 24.0570211,29.4999358 C23.2560186,30.3764272 21.7558318,29.9282778 21.4229027,28.849309 L21.4087817,28.8005777 C21.0306127,27.4058771 19.4959648,26.4856579 18.098007,26.9738771 C16.4649085,27.5441002 16.5122324,29.269564 15.3667394,30.274746 C15.232162,30.3928908 15.0707535,30.411701 14.9093451,30.3337127 C13.6926549,29.7455249 13.9113169,27.9752548 14.3450493,26.9620415 C14.913993,25.6324368 16.0197676,24.4499319 17.4154014,23.9843272 Z M13.9279014,16.2050935 C16.0029718,14.0869409 21.4139577,12.0372658 22.8334648,15.9487256 C23.1038873,16.6937354 22.5281831,17.6982834 21.752831,17.8527804 C20.4831127,18.1055554 19.3566338,17.5541425 18.0953662,17.6530544 C17.0743099,17.7335789 16.0093099,18.0749096 15.1929718,18.7076924 C12.9319859,20.460209 12.434662,23.4243969 10.8592394,25.6549879 C10.7825493,25.7636219 10.6336056,25.7179703 10.6194507,25.589892 C10.2607183,22.3424947 11.6550845,18.5248744 13.9279014,16.2050935 Z M40.9902676,14.1199327 C42.3673099,13.6334043 43.9266761,13.6750403 45.3109014,14.1066176 C46.7052676,14.5415765 47.985338,15.3675335 48.9715352,16.4466881 C49.419,16.936598 49.8330845,17.4772321 50.1651972,18.0527389 C50.3416056,18.3577174 50.5270986,18.9877526 50.7275915,19.3628994 C51.8123435,19.9894274 52.2759906,21.4171188 51.3048214,22.4328182 L51.2610423,22.4773573 L51.1311127,22.606281 C50.6090704,23.1232438 49.8218873,23.3472751 49.1092817,23.1407859 C47.5146338,22.6791969 47.3209014,21.4227194 46.7688592,20.089099 C46.4042113,19.208191 45.779493,18.4287311 45.0220986,17.8561832 C43.2320282,16.5035413 40.2968873,16.072598 38.1417465,16.7100305 C38.0270282,16.7440579 37.8922394,16.5978035 37.974,16.4917057 C38.3823803,15.9624845 38.6177324,15.5281597 39.164493,15.1012321 C39.719493,14.667964 40.3251972,14.3549542 40.9902676,14.1199327 Z" id="ðŸ–-Ink"></path>
                    </g>
                    <g id="facial-hair/Full" transform="translate(104.577451, 109.479380)" fill="#000000">
                        <path d="M24.8714257,20.1190753 C26.5818995,16.1103389 30.3151083,13.1641387 34.613341,12.0870037 C37.7697106,11.2980357 41.0822108,11.3232133 44.2997667,11.6363462 C45.9855551,11.79926 47.793716,11.9327646 49.3824502,12.5590305 C50.7390983,13.094107 51.8446716,14.1054418 52.6759615,15.2925964 C53.6654918,16.6993673 54.3385412,18.3094631 54.8111527,19.9597583 C54.8782466,20.1943964 54.9413318,20.4307272 55.0001973,20.6683274 C54.7946957,21.913454 54.358374,22.9732397 53.2055395,23.7560721 C52.0805554,24.5204973 50.7382544,24.8332071 49.4001731,24.9442846 C49.268939,24.8812349 49.1421356,24.8164925 49.0258817,24.7500576 C46.9406944,23.5559209 45.473067,20.733916 42.8412117,21.1158113 C40.4925014,21.4568723 38.9463867,24.4132281 37.5496509,26.1468844 C33.0661714,26.6694779 28.5860676,25.3217368 24.9380977,22.7570087 C24.7528508,21.8791786 24.7420905,20.9939433 24.8714257,20.1190753 M58.0474865,17.0780889 C57.6888081,16.0711973 57.2370843,15.0960421 56.7015987,14.1773777 C54.9314154,11.1393534 52.2138994,8.71870887 48.987904,7.33499979 C41.3564943,4.06614578 31.4822899,6.37042339 25.3193517,11.7315555 C23.2141207,13.5642296 21.0854701,16.2573844 20.4417479,19.1542873 C20.2495385,19.192371 20.0680894,19.2924466 19.9187104,19.4333564 C15.466035,16.6289124 10.8806486,13.9306797 7.29259907,10.0431766 C4.68690625,7.21863282 2.87452557,3.87593867 1.76473252,0.202762327 C1.67400799,-0.0995802223 1.18662739,-0.0553607732 1.2013965,0.279141375 C1.20561624,0.357424611 1.20983599,0.43549627 1.21405573,0.513779505 C1.16763853,0.369907613 0.94821177,0.443959322 0.931332788,0.583599688 C0.334238806,5.0457441 -0.412656141,9.77659043 0.275162369,14.2620082 C0.686587551,16.9384486 1.90187424,18.8978568 3.52647625,21.0136199 C5.26712125,23.2815064 7.23774238,25.3909222 9.25267083,27.4138033 C10.5312537,28.69786 11.8668031,30.1788941 13.4323287,31.1204087 C15.2531489,32.2142583 17.3187143,33.0459647 19.2619071,33.8899427 C21.2388578,34.7510582 23.2453468,35.5465852 25.2898135,36.2363239 C29.3766369,37.620033 33.6006021,38.576358 37.8984129,38.9952791 C41.3396153,39.3295696 45.2724181,39.6936925 48.5701492,38.3986339 C51.0977767,37.406341 53.1380236,35.6123854 54.756296,33.4540955 C56.5180397,31.1034826 57.9107667,28.4259844 58.6806593,25.6024985 C59.480723,22.6696277 58.2160653,17.550962 58.0474865,17.0780889" id="ðŸ–-Ink"></path>
                    </g>
                    <g id="accessories/Glasses" transform="translate(88.521127, 88.978474)" fill="#000000">
                        <path d="M82.2021338,13.3747538 C80.1879085,27.0045229 66.1272042,28.5118732 63.6289648,14.9808047 C64.0299507,14.8051726 64.318331,14.4594035 64.2581197,13.788155 C64.2439648,10.8393957 65.1589648,7.72282427 67.8179789,6.08295734 C70.5657254,4.39088689 73.7814296,4.22307476 76.9612183,4.26576751 C83.0292465,4.12120391 82.9016408,9.19509041 82.2021338,13.3747538 M61.4277676,7.44701213 C59.5234014,7.36669902 57.1141056,7.43390841 55.4081197,8.59464423 C54.9391056,7.33119217 53.7205141,5.98214325 52.4892465,5.2608047 C57.0657254,5.39480078 61.7765704,4.94420196 66.3872746,4.59441722 C65.2836127,5.34703562 64.2568521,6.47775969 63.5894577,7.78496125 C62.9702324,7.45462074 62.083331,7.48547789 61.4277676,7.44701213 M53.0336831,14.8197558 C47.7530493,33.0034896 34.5718521,25.0778536 33.1348099,22.7475053 C30.5427676,18.8912078 30.055162,9.51697691 32.3129789,7.01057378 C35.5449507,4.74405323 40.1203732,5.32738004 43.9384014,5.27179491 C50.9526972,5.36647984 55.9343873,7.46561096 53.0336831,14.8197558 M88.4372746,6.45641331 C87.0025563,6.26873425 85.4693873,6.23090254 84.1354437,6.86283992 C83.7247394,5.11645245 82.4353732,3.65644462 80.9795282,3.01393973 C80.803331,2.79286732 80.8297394,2.67408845 80.227838,2.70727045 C76.5317113,1.59599061 72.3957254,2.18396712 68.8438944,3.32356791 C63.2343169,3.79614716 57.3490352,4.16875773 51.6923451,4.81992798 C46.393331,2.43927828 30.4018521,2.09033894 29.4080493,7.95805714 C28.1579789,7.77101213 26.0290352,6.78675382 24.9786127,8.12185362 C17.2734718,6.81507476 9.31185211,8.63120783 1.57333099,9.4400454 C-0.374556338,9.7989182 -1.3778662,13.6662059 0.833260563,13.6133683 C2.07635915,13.2758419 0.795021127,11.2052431 2.46889437,11.0494779 C9.93530282,10.2336658 17.2384014,9.07631155 24.7812887,8.94083601 C24.5188944,10.2438106 29.770162,10.328562 29.8476972,9.56770098 C29.8588944,9.57340744 29.8707254,9.57721174 29.8821338,9.58228415 C28.5845282,14.4200924 29.7557958,21.3823937 32.1008662,24.3822998 C35.3865,28.3104564 43.6354437,29.4373761 47.2931197,26.9100493 C52.0113592,24.5773761 56.9197394,12.8681472 55.541007,8.97803366 C58.0432606,8.18462466 60.516993,8.42281644 63.1138944,8.8269182 C62.5193873,10.5069417 61.4930493,14.6426442 62.9695986,15.0013057 C62.6985423,23.2122646 70.168331,28.335607 77.0543873,24.9673174 C83.0144577,22.1684055 85.0988239,13.3090239 84.3695282,7.93163836 C85.1115,9.36586145 91.3413592,7.80440548 88.4372746,6.45641331" id="ðŸ–-Ink"></path>
                    </g>
                </g>
            </g>
        </g>
    </g>
</svg>